<?xml version="1.0" encoding="utf-8"?>
<!-- Generator: Adobe Illustrator 19.2.0, SVG Export Plug-In . SVG Version: 6.00 Build 0)  -->
<svg version="1.1" id="Layer_1" xmlns="http://www.w3.org/2000/svg" xmlns:xlink="http://www.w3.org/1999/xlink" x="0px" y="0px"
	 viewBox="0 0 28.5 23.8" style="enable-background:new 0 0 28.5 23.8;" xml:space="preserve">
<style type="text/css">
	.st0{fill:#FFFFFF;}
</style>
<g>
	<path class="st0" d="M5.1,11.9c-0.5,0-0.5,0.1-0.5,0.9v6.8c0,2.3,0.1,2.7,1.2,2.8L7,22.5c0.2,0.2,0.2,0.7-0.1,0.8
		c-1.4-0.1-2.4-0.1-3.5-0.1c-1.2,0-2.1,0-3.1,0.1c-0.2-0.1-0.3-0.6-0.1-0.8L1,22.4c1.2-0.2,1.2-0.5,1.2-2.8v-6.8
		c0-0.9,0-0.9-0.6-0.9H0.4c-0.2-0.1-0.2-0.4-0.1-0.6l1.4-0.7C2,10.5,2.2,10.3,2.2,10c0-1.9,0.2-3.9,1-5.7C4,2.5,5.8,0.2,9,0.2
		c1.7,0,3.2,0.8,3.2,1.9c0,0.6-0.6,1.2-1.2,1.2c-0.4,0-0.5-0.1-0.8-0.4C9.6,2.2,8.7,1.5,7.6,1.5c-1,0-1.8,0.6-2.3,1.8
		C4.7,4.8,4.6,7.1,4.6,8.7v0.9c0,0.9,0,0.9,0.5,0.9h3.7c0.4,0.3,0.1,1.2-0.2,1.4H5.1z"/>
	<path class="st0" d="M22.9,11.9c-0.1-0.3-0.3-0.5-0.6-0.6c-1.8-1.8-4.5-2.3-7.1-1.3l0,0c-4.1,1.7-5.2,5.4-4.4,8.5
		c0.5,2,1.7,3.4,3,4.1c1.4,0.8,3,0.9,4.7,0.5c1.8-0.5,3.9-2,4.4-4.5c-0.1-0.3-0.4-0.4-0.7-0.3c-0.4,1.2-1.2,2.3-3,2.8
		c-3.3,0.9-5.8-1.6-6.4-4c-0.5-2-0.1-3.7,0.8-4.8c0.2-0.1,0.3-0.2,0.5-0.4c0.2-0.2,0.5-0.4,0.8-0.5c1.6-0.8,3.4-0.7,4.8,0.2
		c-0.5,0.6-0.7,1.5-0.3,2.2c0.5,0.9,1.7,1.3,2.6,0.8C23,14,23.4,12.8,22.9,11.9"/>
	<path class="st0" d="M28.5,21.6c0,1.2-0.8,1.7-1.7,1.7c-1,0-1.6-0.7-1.6-1.6c0-1.1,0.8-1.7,1.7-1.7S28.5,20.7,28.5,21.6"/>
</g>
</svg>
