<?xml version="1.0" encoding="utf-8"?>
<!-- Generator: Adobe Illustrator 19.2.0, SVG Export Plug-In . SVG Version: 6.00 Build 0)  -->
<svg version="1.1" id="Layer_1" xmlns="http://www.w3.org/2000/svg" xmlns:xlink="http://www.w3.org/1999/xlink" x="0px" y="0px"
	 viewBox="0 0 330.5 51.3" style="enable-background:new 0 0 330.5 51.3;" xml:space="preserve">
<style type="text/css">
	.st0{fill:#FFFFFF;}
</style>
<g>
	<g>
		<g>
			<path class="st0" d="M50.9,9.8V19h15.8v9.4H50.9v20.7h-9.6V0h36.4v9.8H50.9z"/>
			<path class="st0" d="M91.9,49.1V0h9.6v39.8h26.7v9.3H91.9z"/>
			<path class="st0" d="M178.8,35.2c-0.4,1.6-1.1,3.3-2,5c-0.8,1.5-1.8,2.8-3,4c-1.2,1.2-2.5,2.2-4,3.1c-1.5,0.9-3,1.5-4.7,2
				c-1.7,0.5-3.4,0.7-5.1,0.7c-2.7,0-5.2-0.5-7.6-1.5c-2.4-1-4.5-2.4-6.4-4.2c-1.8-1.8-3.3-3.8-4.4-6.1c-1.1-2.3-1.7-4.8-1.7-7.5V29
				V0h9.6v29v1.4c0,1.3,0.3,2.6,0.9,3.7c0.6,1.2,1.4,2.2,2.3,3.2c1,0.9,2.1,1.6,3.3,2.1c1.2,0.5,2.5,0.8,3.8,0.8
				c1.8,0,3.5-0.4,5.1-1.3c1.6-0.9,2.8-2.1,3.7-3.7c0.2-0.5,0.4-0.9,0.6-1.3c0.2-0.4,0.3-0.8,0.4-1.3c0.1-0.4,0.1-1,0.1-1.5
				c0-0.6,0-1.3,0-2.1V0h9.6v29C179.4,31.5,179.2,33.5,178.8,35.2z"/>
			<path class="st0" d="M232,49.1V22.5L219,49.1l-13.3-26.6v26.6H196V0h8.3L219,29.6L233.3,0h8.3v49.1H232z"/>
			<path class="st0" d="M258.2,49.1V0h35.7v9.8h-26.1v8.5h14.8v9.4h-14.8v11.7h26.7v9.8H258.2z"/>
		</g>
		<circle class="st0" cx="7.6" cy="25" r="7.6"/>
		<circle class="st0" cx="322.9" cy="25" r="7.6"/>
	</g>
</g>
</svg>
